<?xml version="1.0" encoding="utf-8"?>
<!-- Generator: Adobe Illustrator 27.0.0, SVG Export Plug-In . SVG Version: 6.00 Build 0)  -->
<svg version="1.1" id="Layer_1" xmlns="http://www.w3.org/2000/svg" xmlns:xlink="http://www.w3.org/1999/xlink" x="0px" y="0px"
	 viewBox="0 0 168.4 213.2" style="enable-background:new 0 0 168.4 213.2;" xml:space="preserve">
<style type="text/css">
	.st0{fill:#437669;stroke:#437669;stroke-width:1.1629;stroke-miterlimit:10;}
	.st1{fill:#437669;stroke:#437669;stroke-width:1.2506;stroke-miterlimit:10;}
	.st2{fill:#437669;stroke:#437669;stroke-width:0.4264;stroke-miterlimit:10;}
	.st3{fill:#D8C27C;}
	.st4{fill:#DCDCDA;}
	.st5{fill:#437669;}
</style>
<g>
	<g>
		<g>
			<g>
				<path class="st0" d="M27.2,139.7v-12.9c0-8,4.1-13.2,12.5-13.2c4.4,0,8.1,1.6,10.4,5.9c0.2,0.3,0.3,0.7,0.3,1
					c0,1.2-1,2.2-2.3,2.2c-0.6,0-1.2-0.2-1.7-0.9c-1.5-2.3-3.2-3.7-6.7-3.7c-5.8,0-7.9,3.4-7.9,9.3v11.8c0,5.9,2.2,9.3,7.9,9.3
					c4.1,0,7.7-2.1,7.7-6.2v-5.9h-5.5c-1.2,0-2.1-0.9-2.1-2.1c0-1.2,0.9-2.1,2.1-2.1h7.7c1.2,0,2.1,0.9,2.1,2.1v8.1
					c0,6.4-4.9,10.5-12,10.5C31.2,153,27.2,147.7,27.2,139.7z"/>
				<path class="st1" d="M46,134.3c0-1.1,1.7-2,3.8-2h14.2c2,0,3.8,0.9,3.8,2s-1.7,2-3.8,2H49.8C47.7,136.3,46,135.4,46,134.3z"/>
				<path class="st0" d="M65,150.6V116c0-1.3,1-2.4,2.3-2.4c1.2,0,2.3,1,2.3,2.4v34.7c0,1.3-1.1,2.3-2.3,2.3
					C66,153,65,151.9,65,150.6z"/>
				<path class="st0" d="M79.4,150.2v-33.8c0-1.3,1-2.4,2.3-2.4h9.3c8.7,0,14,6,14,19.1c0,11.9-5.3,19.3-12.7,19.3H81.6
					C80.4,152.5,79.4,151.5,79.4,150.2z M90.2,148.2c8.3,0,10.1-7.5,10.1-15.2c0-7-1.8-14.7-10.1-14.7h-6.2v29.9H90.2z"/>
				<path class="st0" d="M109.4,150.6c0-0.4,0.1-0.8,0.2-1.1l10.8-33.7c0.3-1.1,1-1.8,2.2-1.8h1c1.2,0,1.9,0.7,2.2,1.8l10.8,33.8
					c0.1,0.3,0.2,0.7,0.2,1c0,1.3-1,2.3-2.3,2.3c-1.1,0-1.9-0.8-2.2-1.8l-2.5-8.2h-13.3l-2.5,8.2c-0.3,1-1.2,1.8-2.3,1.8
					C110.4,153,109.4,151.9,109.4,150.6z M128.7,138.6l-5.4-17.7H123l-5.4,17.7H128.7z"/>
			</g>
		</g>
		<g>
			<path class="st2" d="M26.7,164.7v-2.2c0-1.3,0.7-2.2,2.1-2.2c0.7,0,1.4,0.3,1.7,1c0,0.1,0,0.1,0,0.2c0,0.2-0.2,0.4-0.4,0.4
				c-0.1,0-0.2,0-0.3-0.2c-0.2-0.4-0.5-0.6-1.1-0.6c-1,0-1.3,0.6-1.3,1.6v2c0,1,0.4,1.6,1.3,1.6c0.7,0,1.3-0.4,1.3-1v-1h-0.9
				c-0.2,0-0.4-0.2-0.4-0.4c0-0.2,0.2-0.4,0.4-0.4h1.3c0.2,0,0.4,0.2,0.4,0.4v1.4c0,1.1-0.8,1.8-2,1.8
				C27.4,167,26.7,166.1,26.7,164.7z"/>
			<path class="st2" d="M34.7,166.6v-5.7c0-0.2,0.2-0.4,0.4-0.4h1.4c1.3,0,2.1,0.5,2.1,2c0,1.3-0.7,1.7-1.2,1.8l1.1,2.1
				c0,0.1,0.1,0.2,0.1,0.2c0,0.2-0.2,0.4-0.4,0.4c-0.2,0-0.3-0.1-0.4-0.3l-1.2-2.3h-1.2v2.2c0,0.2-0.2,0.4-0.4,0.4
				C34.9,167,34.7,166.8,34.7,166.6z M36.5,163.7c0.8,0,1.3-0.3,1.3-1.2c0-1-0.5-1.2-1.4-1.2h-0.9v2.5H36.5z"/>
			<path class="st2" d="M42.3,166.6v-5.8c0-0.2,0.2-0.4,0.4-0.4c0.2,0,0.4,0.2,0.4,0.4v5.8c0,0.2-0.2,0.4-0.4,0.4
				C42.5,167,42.3,166.8,42.3,166.6z"/>
			<path class="st2" d="M46.9,166.5c-0.1-0.1-0.2-0.2-0.2-0.3c0-0.2,0.2-0.4,0.4-0.4c0.1,0,0.1,0,0.2,0.1c0.4,0.2,0.8,0.3,1.3,0.3
				c0.9,0,1.2-0.5,1.2-1.1c0-2-3-0.7-3-3c0-1.1,0.6-1.7,1.8-1.7c0.6,0,1.2,0.2,1.5,0.4c0.1,0.1,0.2,0.2,0.2,0.3
				c0,0.2-0.2,0.3-0.4,0.3c-0.1,0-0.1,0-0.2-0.1c-0.4-0.2-0.8-0.3-1.1-0.3c-0.9,0-1.1,0.5-1.1,1c0,1.5,3,0.5,3,3
				c0,1.1-0.6,1.9-2,1.9C48,167,47.4,166.8,46.9,166.5z"/>
			<path class="st2" d="M54.2,166.6v-5.8c0-0.2,0.2-0.4,0.4-0.4c0.2,0,0.4,0.2,0.4,0.4v5.8c0,0.2-0.2,0.4-0.4,0.4
				C54.4,167,54.2,166.8,54.2,166.6z"/>
			<path class="st2" d="M58.8,166.5c-0.1-0.1-0.2-0.2-0.2-0.3c0-0.2,0.2-0.4,0.4-0.4c0.1,0,0.1,0,0.2,0.1c0.4,0.2,0.8,0.3,1.3,0.3
				c0.9,0,1.2-0.5,1.2-1.1c0-2-3-0.7-3-3c0-1.1,0.6-1.7,1.8-1.7c0.6,0,1.2,0.2,1.5,0.4c0.1,0.1,0.2,0.2,0.2,0.3
				c0,0.2-0.2,0.3-0.4,0.3c-0.1,0-0.1,0-0.2-0.1c-0.4-0.2-0.8-0.3-1.1-0.3c-0.9,0-1.1,0.5-1.1,1c0,1.5,3,0.5,3,3
				c0,1.1-0.6,1.9-2,1.9C59.9,167,59.3,166.8,58.8,166.5z"/>
			<path class="st2" d="M70.8,166.6v-5.8c0-0.2,0.2-0.4,0.4-0.4c0.2,0,0.4,0.2,0.4,0.4v5.8c0,0.2-0.2,0.4-0.4,0.4
				C71,167,70.8,166.8,70.8,166.6z"/>
			<path class="st2" d="M75.6,166.6v-5.9c0-0.2,0.2-0.4,0.3-0.4c0.1,0,0.2,0.1,0.3,0.2l2.9,4.7h0v-4.6c0-0.2,0.2-0.4,0.4-0.4
				s0.4,0.2,0.4,0.4v5.9c0,0.2-0.2,0.4-0.4,0.4c-0.2,0-0.3-0.1-0.3-0.2l-2.8-4.7h0v4.5c0,0.2-0.2,0.4-0.4,0.4S75.6,166.8,75.6,166.6
				z"/>
			<path class="st2" d="M83.8,166.5c-0.1-0.1-0.2-0.2-0.2-0.3c0-0.2,0.2-0.4,0.4-0.4c0.1,0,0.1,0,0.2,0.1c0.4,0.2,0.8,0.3,1.3,0.3
				c0.9,0,1.2-0.5,1.2-1.1c0-2-3-0.7-3-3c0-1.1,0.6-1.7,1.8-1.7c0.6,0,1.2,0.2,1.5,0.4c0.1,0.1,0.2,0.2,0.2,0.3
				c0,0.2-0.2,0.3-0.4,0.3c-0.1,0-0.1,0-0.2-0.1c-0.4-0.2-0.8-0.3-1.1-0.3c-0.9,0-1.1,0.5-1.1,1c0,1.5,3,0.5,3,3
				c0,1.1-0.6,1.9-2,1.9C84.9,167,84.3,166.8,83.8,166.5z"/>
			<path class="st2" d="M91.1,166.6v-5.7c0-0.2,0.2-0.4,0.4-0.4h1.3c1.3,0,2.2,0.4,2.2,2c0,1.4-0.8,2.1-2.1,2.1h-1v2
				c0,0.2-0.2,0.4-0.4,0.4C91.3,167,91.1,166.8,91.1,166.6z M92.9,163.8c0.9,0,1.3-0.5,1.3-1.4c0-1-0.4-1.3-1.4-1.3h-0.9v2.7H92.9z"
				/>
			<path class="st2" d="M98.6,166.5v-5.7c0-0.2,0.2-0.4,0.4-0.4h2.5c0.2,0,0.4,0.2,0.4,0.4c0,0.2-0.2,0.4-0.4,0.4h-2.2v2.1h2
				c0.2,0,0.4,0.2,0.4,0.4c0,0.2-0.2,0.4-0.4,0.4h-2v2.2h2.2c0.2,0,0.4,0.2,0.4,0.4c0,0.2-0.2,0.4-0.4,0.4H99
				C98.8,166.9,98.6,166.7,98.6,166.5z"/>
			<path class="st2" d="M105.4,164.7v-2.2c0-1.3,0.7-2.2,2.1-2.2c0.7,0,1.4,0.3,1.7,1c0,0.1,0,0.1,0,0.2c0,0.2-0.2,0.4-0.4,0.4
				c-0.1,0-0.2,0-0.3-0.2c-0.2-0.4-0.5-0.6-1.1-0.6c-1,0-1.3,0.6-1.3,1.6v2c0,1,0.4,1.6,1.3,1.6c0.5,0,0.9-0.2,1.1-0.6
				c0.1-0.1,0.2-0.2,0.3-0.2c0.2,0,0.4,0.2,0.4,0.4c0,0.1,0,0.1-0.1,0.2c-0.3,0.5-0.8,1-1.7,1C106,167,105.4,166.1,105.4,164.7z"/>
			<path class="st2" d="M114,166.6v-5.4h-1.4c-0.2,0-0.4-0.2-0.4-0.4c0-0.2,0.1-0.4,0.4-0.4h3.6c0.2,0,0.4,0.2,0.4,0.4
				c0,0.2-0.1,0.4-0.4,0.4h-1.4v5.4c0,0.2-0.2,0.4-0.4,0.4C114.2,167,114,166.8,114,166.6z"/>
			<path class="st2" d="M120.1,166.6v-5.8c0-0.2,0.2-0.4,0.4-0.4c0.2,0,0.4,0.2,0.4,0.4v5.8c0,0.2-0.2,0.4-0.4,0.4
				C120.2,167,120.1,166.8,120.1,166.6z"/>
			<path class="st2" d="M124.7,164.7v-2.2c0-1.3,0.7-2.2,2.1-2.2c1.4,0,2.1,0.9,2.1,2.2v2.2c0,1.3-0.7,2.2-2.1,2.2
				C125.3,167,124.7,166.1,124.7,164.7z M128.1,164.7v-2c0-1-0.4-1.6-1.3-1.6c-1,0-1.3,0.6-1.3,1.6v2c0,1,0.4,1.6,1.3,1.6
				C127.7,166.2,128.1,165.7,128.1,164.7z"/>
			<path class="st2" d="M132.7,166.6v-5.9c0-0.2,0.2-0.4,0.3-0.4c0.1,0,0.2,0.1,0.3,0.2l2.9,4.7h0v-4.6c0-0.2,0.2-0.4,0.4-0.4
				c0.2,0,0.4,0.2,0.4,0.4v5.9c0,0.2-0.2,0.4-0.4,0.4c-0.2,0-0.3-0.1-0.3-0.2l-2.8-4.7h0v4.5c0,0.2-0.2,0.4-0.4,0.4
				C132.8,167,132.7,166.8,132.7,166.6z"/>
			<path class="st2" d="M26.9,177.1v-5.7c0-0.2,0.2-0.4,0.4-0.4h1.6c1.5,0,2.3,1,2.3,3.2c0,2-0.9,3.2-2.1,3.2h-1.8
				C27.1,177.5,26.9,177.3,26.9,177.1z M28.8,176.8c1.4,0,1.7-1.3,1.7-2.6c0-1.2-0.3-2.5-1.7-2.5h-1v5H28.8z"/>
			<path class="st2" d="M35.1,177.1v-5.7c0-0.2,0.2-0.4,0.4-0.4h2.5c0.2,0,0.4,0.2,0.4,0.4s-0.2,0.4-0.4,0.4h-2.2v2.1h2
				c0.2,0,0.4,0.2,0.4,0.4s-0.2,0.4-0.4,0.4h-2v2.2h2.2c0.2,0,0.4,0.2,0.4,0.4c0,0.2-0.2,0.4-0.4,0.4h-2.6
				C35.3,177.5,35.1,177.3,35.1,177.1z"/>
			<path class="st2" d="M42.2,177.1v-5.7c0-0.2,0.2-0.4,0.4-0.4h2.6c0.2,0,0.4,0.2,0.4,0.4s-0.2,0.4-0.4,0.4H43v2.2h2
				c0.2,0,0.4,0.2,0.4,0.4s-0.2,0.4-0.4,0.4h-2v2.5c0,0.2-0.2,0.4-0.4,0.4C42.4,177.5,42.2,177.3,42.2,177.1z"/>
			<path class="st2" d="M49.3,177.1v-5.7c0-0.2,0.2-0.4,0.4-0.4h2.5c0.2,0,0.4,0.2,0.4,0.4s-0.2,0.4-0.4,0.4H50v2.1h2
				c0.2,0,0.4,0.2,0.4,0.4s-0.2,0.4-0.4,0.4h-2v2.2h2.2c0.2,0,0.4,0.2,0.4,0.4c0,0.2-0.2,0.4-0.4,0.4h-2.6
				C49.4,177.5,49.3,177.3,49.3,177.1z"/>
			<path class="st2" d="M56.2,175.4v-2.2c0-1.3,0.7-2.2,2.1-2.2c0.7,0,1.4,0.3,1.7,1c0,0.1,0,0.1,0,0.2c0,0.2-0.2,0.4-0.4,0.4
				c-0.1,0-0.2,0-0.3-0.2c-0.2-0.4-0.5-0.6-1.1-0.6c-1,0-1.3,0.6-1.3,1.6v2c0,1,0.4,1.6,1.3,1.6c0.5,0,0.9-0.2,1.1-0.6
				c0.1-0.1,0.2-0.2,0.3-0.2c0.2,0,0.4,0.2,0.4,0.4c0,0.1,0,0.1-0.1,0.2c-0.3,0.5-0.8,1-1.7,1C56.8,177.6,56.2,176.7,56.2,175.4z"/>
			<path class="st2" d="M64.9,177.2v-5.4h-1.4c-0.2,0-0.4-0.2-0.4-0.4c0-0.2,0.1-0.4,0.4-0.4h3.6c0.2,0,0.4,0.2,0.4,0.4
				s-0.1,0.4-0.4,0.4h-1.4v5.4c0,0.2-0.2,0.4-0.4,0.4C65.1,177.6,64.9,177.4,64.9,177.2z"/>
			<path class="st2" d="M75.5,177.2c0-0.1,0-0.1,0-0.2l1.8-5.6c0.1-0.2,0.2-0.3,0.4-0.3h0.2c0.2,0,0.3,0.1,0.4,0.3l1.8,5.7
				c0,0,0,0.1,0,0.2c0,0.2-0.2,0.4-0.4,0.4c-0.2,0-0.3-0.1-0.4-0.3l-0.4-1.4h-2.2l-0.4,1.4c0,0.2-0.2,0.3-0.4,0.3
				C75.7,177.6,75.5,177.4,75.5,177.2z M78.7,175.2l-0.9-3h0l-0.9,3H78.7z"/>
			<path class="st2" d="M83.6,177.1c-0.1-0.1-0.2-0.2-0.2-0.3c0-0.2,0.2-0.4,0.4-0.4c0.1,0,0.1,0,0.2,0.1c0.4,0.2,0.8,0.3,1.3,0.3
				c0.9,0,1.2-0.5,1.2-1.1c0-2-3-0.7-3-3c0-1.1,0.6-1.7,1.8-1.7c0.6,0,1.2,0.2,1.5,0.4c0.1,0.1,0.2,0.2,0.2,0.3
				c0,0.2-0.2,0.3-0.4,0.3c-0.1,0-0.1,0-0.2-0.1c-0.4-0.2-0.8-0.3-1.1-0.3c-0.9,0-1.1,0.5-1.1,1c0,1.5,3,0.5,3,3
				c0,1.1-0.6,1.9-2,1.9C84.7,177.6,84.1,177.5,83.6,177.1z"/>
			<path class="st2" d="M90.8,177.1c-0.1-0.1-0.2-0.2-0.2-0.3c0-0.2,0.2-0.4,0.4-0.4c0.1,0,0.1,0,0.2,0.1c0.4,0.2,0.8,0.3,1.3,0.3
				c0.9,0,1.2-0.5,1.2-1.1c0-2-3-0.7-3-3c0-1.1,0.6-1.7,1.8-1.7c0.6,0,1.2,0.2,1.5,0.4c0.1,0.1,0.2,0.2,0.2,0.3
				c0,0.2-0.2,0.3-0.4,0.3c-0.1,0-0.1,0-0.2-0.1c-0.4-0.2-0.8-0.3-1.1-0.3c-0.9,0-1.1,0.5-1.1,1c0,1.5,3,0.5,3,3
				c0,1.1-0.6,1.9-2,1.9C91.9,177.6,91.3,177.5,90.8,177.1z"/>
			<path class="st2" d="M98.3,177.2v-5.8c0-0.2,0.2-0.4,0.4-0.4s0.4,0.2,0.4,0.4v5.8c0,0.2-0.2,0.4-0.4,0.4S98.3,177.4,98.3,177.2z"
				/>
			<path class="st2" d="M103,177.1c-0.1-0.1-0.2-0.2-0.2-0.3c0-0.2,0.2-0.4,0.4-0.4c0.1,0,0.1,0,0.2,0.1c0.4,0.2,0.8,0.3,1.3,0.3
				c0.9,0,1.2-0.5,1.2-1.1c0-2-3-0.7-3-3c0-1.1,0.6-1.7,1.8-1.7c0.6,0,1.2,0.2,1.5,0.4c0.1,0.1,0.2,0.2,0.2,0.3
				c0,0.2-0.2,0.3-0.4,0.3c-0.1,0-0.1,0-0.2-0.1c-0.4-0.2-0.8-0.3-1.1-0.3c-0.9,0-1.1,0.5-1.1,1c0,1.5,3,0.5,3,3
				c0,1.1-0.6,1.9-2,1.9C104.1,177.6,103.5,177.5,103,177.1z"/>
			<path class="st2" d="M111.6,177.2v-5.4h-1.4c-0.2,0-0.4-0.2-0.4-0.4c0-0.2,0.1-0.4,0.4-0.4h3.6c0.2,0,0.4,0.2,0.4,0.4
				s-0.1,0.4-0.4,0.4h-1.4v5.4c0,0.2-0.2,0.4-0.4,0.4C111.7,177.6,111.6,177.4,111.6,177.2z"/>
			<path class="st2" d="M116.6,177.2c0-0.1,0-0.1,0-0.2l1.8-5.6c0.1-0.2,0.2-0.3,0.4-0.3h0.2c0.2,0,0.3,0.1,0.4,0.3l1.8,5.7
				c0,0,0,0.1,0,0.2c0,0.2-0.2,0.4-0.4,0.4c-0.2,0-0.3-0.1-0.4-0.3l-0.4-1.4h-2.2l-0.4,1.4c0,0.2-0.2,0.3-0.4,0.3
				C116.7,177.6,116.6,177.4,116.6,177.2z M119.8,175.2l-0.9-3h0l-0.9,3H119.8z"/>
			<path class="st2" d="M124.9,177.2v-5.9c0-0.2,0.2-0.4,0.3-0.4c0.1,0,0.2,0.1,0.3,0.2l2.9,4.7h0v-4.6c0-0.2,0.2-0.4,0.4-0.4
				c0.2,0,0.4,0.2,0.4,0.4v5.9c0,0.2-0.2,0.4-0.4,0.4c-0.2,0-0.3-0.1-0.3-0.2l-2.8-4.7h0v4.5c0,0.2-0.2,0.4-0.4,0.4
				S124.9,177.4,124.9,177.2z"/>
			<path class="st2" d="M134.6,177.2v-5.4h-1.4c-0.2,0-0.4-0.2-0.4-0.4c0-0.2,0.1-0.4,0.4-0.4h3.6c0.2,0,0.4,0.2,0.4,0.4
				s-0.1,0.4-0.4,0.4h-1.4v5.4c0,0.2-0.2,0.4-0.4,0.4C134.8,177.6,134.6,177.4,134.6,177.2z"/>
		</g>
	</g>
	<path class="st3" d="M81.9,81.8c6.6,0.1,12.2-5.4,12.2-12.1c0,0,0,0,0,0H69.9C69.8,76.3,75.3,81.7,81.9,81.8z"/>
	<path class="st4" d="M137.5,69.7h-6.6c-5.8,9-13.9,16.4-23.4,21.1c4.9-5.7,8-13.1,8-21.1h-5.9C109.4,84.6,97.1,96.6,82,96.6
		c-15.1,0-27.4-12-27.6-26.9h-5.9c0.1,8.1,3.1,15.4,8,21.1C47,86.1,38.9,78.7,33.1,69.7h-6.6c2.8,4.8,6.1,9.3,10.1,13.4
		c11.7,12.1,27.2,18.9,43.7,19.3c0.6,0,1.1,0,1.7,0s1.1,0,1.7,0c16.5-0.4,32-7.2,43.7-19.3C131.4,79.1,134.7,74.6,137.5,69.7z"/>
	<g>
		<path class="st3" d="M82.1,52.9c-6.6-0.1-12.2,5.4-12.2,12.1c0,0,0,0,0,0h24.2C94.2,58.4,88.8,53,82.1,52.9z"/>
		<g>
			
				<rect x="39.1" y="50.7" transform="matrix(-1 -1.224647e-16 1.224647e-16 -1 164.7726 107.1104)" class="st5" width="86.5" height="5.8"/>
			<g>
				<g>
					<g>
						<path class="st5" d="M82,56.3c-1,0-1.8-0.8-1.8-1.8V36.8c0-1,0.8-1.8,1.8-1.8s1.8,0.8,1.8,1.8v17.7C83.8,55.5,83,56.3,82,56.3
							z"/>
					</g>
					<g>
						<path class="st5" d="M71.3,56.3c-1,0-1.8-0.8-1.8-1.8V38.6c0-1,0.8-1.8,1.8-1.8s1.8,0.8,1.8,1.8v15.9
							C73,55.5,72.3,56.3,71.3,56.3L71.3,56.3z"/>
					</g>
					<g>
						<path class="st5" d="M92.7,56.3c-1,0-1.8-0.8-1.8-1.8V38.6c0-1,0.8-1.8,1.8-1.8s1.8,0.8,1.8,1.8v15.9
							C94.5,55.5,93.7,56.3,92.7,56.3L92.7,56.3z"/>
					</g>
					<g>
						<path class="st5" d="M103.5,56.3c-1,0-1.8-0.8-1.8-1.8V42.1c0-1,0.8-1.8,1.8-1.8s1.8,0.8,1.8,1.8v12.4
							C105.2,55.5,104.4,56.3,103.5,56.3z"/>
					</g>
					<g>
						<path class="st5" d="M60.6,56.3c-1,0-1.8-0.8-1.8-1.8V42.1c0-1,0.8-1.8,1.8-1.8c1,0,1.8,0.8,1.8,1.8v12.4
							C62.3,55.5,61.5,56.3,60.6,56.3L60.6,56.3z"/>
					</g>
				</g>
			</g>
			<g>
				<g>
					<path class="st5" d="M82,37.8c20.4,0,38.4,10.8,48.9,27.2h6.6c-2.8-4.8-6.1-9.3-10.1-13.4C115.3,39.1,99.2,32.2,82,32.2
						s-33.3,6.9-45.4,19.3c-4,4.1-7.3,8.6-10.1,13.4h6.6C43.6,48.6,61.6,37.8,82,37.8z"/>
					<path class="st5" d="M82,38.1c15.1,0,27.4,12,27.6,26.9h5.9c-0.2-18.1-15.2-32.8-33.5-32.8c-18.4,0-33.3,14.7-33.5,32.8h5.9
						C54.6,50.1,66.9,38.1,82,38.1z"/>
				</g>
			</g>
		</g>
	</g>
</g>
</svg>
