<?xml version="1.0" encoding="utf-8"?>
<!-- Generator: Adobe Illustrator 26.5.0, SVG Export Plug-In . SVG Version: 6.00 Build 0)  -->
<svg version="1.1" id="Layer_1" xmlns="http://www.w3.org/2000/svg" xmlns:xlink="http://www.w3.org/1999/xlink" x="0px" y="0px"
	 viewBox="0 0 240.4 79.2" style="enable-background:new 0 0 240.4 79.2;" xml:space="preserve">
<style type="text/css">
	.st0{fill:#025175;stroke:#025175;stroke-width:1.1629;stroke-miterlimit:10;}
	.st1{fill:#025175;stroke:#025175;stroke-width:1.2506;stroke-miterlimit:10;}
	.st2{fill:#025175;stroke:#025175;stroke-width:0.4264;stroke-miterlimit:10;}
	.st3{fill:#025175;}
	.st4{fill:#B6DAE8;}
</style>
<g>
	<g>
		<g>
			<g>
				<path class="st0" d="M124.4,34.1V21.3c0-8,4.1-13.2,12.5-13.2c4.4,0,8.1,1.6,10.4,5.9c0.2,0.3,0.3,0.7,0.3,1
					c0,1.2-1,2.2-2.3,2.2c-0.6,0-1.2-0.2-1.7-0.9c-1.5-2.3-3.2-3.7-6.7-3.7c-5.8,0-7.9,3.4-7.9,9.3v11.8c0,5.9,2.2,9.3,7.9,9.3
					c4.1,0,7.7-2.1,7.7-6.2v-5.9h-5.5c-1.2,0-2.1-0.9-2.1-2.1c0-1.2,0.9-2.1,2.1-2.1h7.7c1.2,0,2.1,0.9,2.1,2.1v8.1
					c0,6.4-4.9,10.5-12,10.5C128.5,47.4,124.4,42.1,124.4,34.1z"/>
				<path class="st1" d="M143.3,28.7c0-1.1,1.7-2,3.8-2h14.2c2,0,3.8,0.9,3.8,2s-1.7,2-3.8,2h-14.2C145,30.7,143.3,29.8,143.3,28.7z
					"/>
				<path class="st0" d="M162.3,45.1V10.4c0-1.3,1-2.4,2.3-2.4c1.2,0,2.3,1,2.3,2.4v34.7c0,1.3-1.1,2.3-2.3,2.3
					C163.3,47.4,162.3,46.3,162.3,45.1z"/>
				<path class="st0" d="M176.7,44.6V10.8c0-1.3,1-2.4,2.3-2.4h9.3c8.7,0,14,6,14,19.1c0,11.9-5.3,19.3-12.7,19.3h-10.5
					C177.7,46.9,176.7,45.9,176.7,44.6z M187.5,42.6c8.3,0,10.1-7.5,10.1-15.2c0-7-1.8-14.7-10.1-14.7h-6.2v29.9H187.5z"/>
				<path class="st0" d="M206.7,45.1c0-0.4,0.1-0.8,0.2-1.1l10.8-33.7c0.3-1.1,1-1.8,2.2-1.8h1c1.2,0,1.9,0.7,2.2,1.8l10.8,33.8
					c0.1,0.3,0.2,0.7,0.2,1c0,1.3-1,2.3-2.3,2.3c-1.1,0-1.9-0.8-2.2-1.8l-2.5-8.2h-13.3l-2.5,8.2c-0.3,1-1.2,1.8-2.3,1.8
					C207.7,47.4,206.7,46.3,206.7,45.1z M225.9,33l-5.4-17.7h-0.2L214.9,33H225.9z"/>
			</g>
		</g>
		<g>
			<path class="st2" d="M124,59.2V57c0-1.3,0.7-2.2,2.1-2.2c0.7,0,1.4,0.3,1.7,1c0,0.1,0,0.1,0,0.2c0,0.2-0.2,0.4-0.4,0.4
				c-0.1,0-0.2,0-0.3-0.2c-0.2-0.4-0.5-0.6-1.1-0.6c-1,0-1.3,0.6-1.3,1.6v2c0,1,0.4,1.6,1.3,1.6c0.7,0,1.3-0.4,1.3-1v-1h-0.9
				c-0.2,0-0.4-0.2-0.4-0.4c0-0.2,0.2-0.4,0.4-0.4h1.3c0.2,0,0.4,0.2,0.4,0.4v1.4c0,1.1-0.8,1.8-2,1.8C124.7,61.4,124,60.5,124,59.2
				z"/>
			<path class="st2" d="M132,61v-5.7c0-0.2,0.2-0.4,0.4-0.4h1.4c1.3,0,2.1,0.5,2.1,2c0,1.3-0.7,1.7-1.2,1.8l1.1,2.1
				c0,0.1,0.1,0.2,0.1,0.2c0,0.2-0.2,0.4-0.4,0.4c-0.2,0-0.3-0.1-0.4-0.3l-1.2-2.3h-1.2V61c0,0.2-0.2,0.4-0.4,0.4
				C132.1,61.4,132,61.2,132,61z M133.8,58.1c0.8,0,1.3-0.3,1.3-1.2c0-1-0.5-1.2-1.4-1.2h-0.9v2.5H133.8z"/>
			<path class="st2" d="M139.6,61v-5.8c0-0.2,0.2-0.4,0.4-0.4c0.2,0,0.4,0.2,0.4,0.4V61c0,0.2-0.2,0.4-0.4,0.4
				C139.8,61.4,139.6,61.2,139.6,61z"/>
			<path class="st2" d="M144.2,60.9c-0.1-0.1-0.2-0.2-0.2-0.3c0-0.2,0.2-0.4,0.4-0.4c0.1,0,0.1,0,0.2,0.1c0.4,0.2,0.8,0.3,1.3,0.3
				c0.9,0,1.2-0.5,1.2-1.1c0-2-3-0.7-3-3c0-1.1,0.6-1.7,1.8-1.7c0.6,0,1.2,0.2,1.5,0.4c0.1,0.1,0.2,0.2,0.2,0.3
				c0,0.2-0.2,0.3-0.4,0.3c-0.1,0-0.1,0-0.2-0.1c-0.4-0.2-0.8-0.3-1.1-0.3c-0.9,0-1.1,0.5-1.1,1c0,1.5,3,0.5,3,3
				c0,1.1-0.6,1.9-2,1.9C145.3,61.4,144.7,61.2,144.2,60.9z"/>
			<path class="st2" d="M151.5,61v-5.8c0-0.2,0.2-0.4,0.4-0.4c0.2,0,0.4,0.2,0.4,0.4V61c0,0.2-0.2,0.4-0.4,0.4
				C151.7,61.4,151.5,61.2,151.5,61z"/>
			<path class="st2" d="M156.1,60.9c-0.1-0.1-0.2-0.2-0.2-0.3c0-0.2,0.2-0.4,0.4-0.4c0.1,0,0.1,0,0.2,0.1c0.4,0.2,0.8,0.3,1.3,0.3
				c0.9,0,1.2-0.5,1.2-1.1c0-2-3-0.7-3-3c0-1.1,0.6-1.7,1.8-1.7c0.6,0,1.2,0.2,1.5,0.4c0.1,0.1,0.2,0.2,0.2,0.3
				c0,0.2-0.2,0.3-0.4,0.3c-0.1,0-0.1,0-0.2-0.1c-0.4-0.2-0.8-0.3-1.1-0.3c-0.9,0-1.1,0.5-1.1,1c0,1.5,3,0.5,3,3
				c0,1.1-0.6,1.9-2,1.9C157.2,61.4,156.6,61.2,156.1,60.9z"/>
			<path class="st2" d="M168.1,61v-5.8c0-0.2,0.2-0.4,0.4-0.4c0.2,0,0.4,0.2,0.4,0.4V61c0,0.2-0.2,0.4-0.4,0.4
				C168.3,61.4,168.1,61.2,168.1,61z"/>
			<path class="st2" d="M172.9,61v-5.9c0-0.2,0.2-0.4,0.3-0.4c0.1,0,0.2,0.1,0.3,0.2l2.9,4.7h0v-4.6c0-0.2,0.2-0.4,0.4-0.4
				c0.2,0,0.4,0.2,0.4,0.4V61c0,0.2-0.2,0.4-0.4,0.4c-0.2,0-0.3-0.1-0.3-0.2l-2.8-4.7h0V61c0,0.2-0.2,0.4-0.4,0.4
				S172.9,61.2,172.9,61z"/>
			<path class="st2" d="M181,60.9c-0.1-0.1-0.2-0.2-0.2-0.3c0-0.2,0.2-0.4,0.4-0.4c0.1,0,0.1,0,0.2,0.1c0.4,0.2,0.8,0.3,1.3,0.3
				c0.9,0,1.2-0.5,1.2-1.1c0-2-3-0.7-3-3c0-1.1,0.6-1.7,1.8-1.7c0.6,0,1.2,0.2,1.5,0.4c0.1,0.1,0.2,0.2,0.2,0.3
				c0,0.2-0.2,0.3-0.4,0.3c-0.1,0-0.1,0-0.2-0.1c-0.4-0.2-0.8-0.3-1.1-0.3c-0.9,0-1.1,0.5-1.1,1c0,1.5,3,0.5,3,3
				c0,1.1-0.6,1.9-2,1.9C182.2,61.4,181.6,61.2,181,60.9z"/>
			<path class="st2" d="M188.4,61v-5.7c0-0.2,0.2-0.4,0.4-0.4h1.3c1.3,0,2.2,0.4,2.2,2c0,1.4-0.8,2.1-2.1,2.1h-1v2
				c0,0.2-0.2,0.4-0.4,0.4C188.5,61.4,188.4,61.2,188.4,61z M190.2,58.2c0.9,0,1.3-0.5,1.3-1.4c0-1-0.4-1.3-1.4-1.3h-0.9v2.7H190.2z
				"/>
			<path class="st2" d="M195.9,60.9v-5.7c0-0.2,0.2-0.4,0.4-0.4h2.5c0.2,0,0.4,0.2,0.4,0.4c0,0.2-0.2,0.4-0.4,0.4h-2.2v2.1h2
				c0.2,0,0.4,0.2,0.4,0.4s-0.2,0.4-0.4,0.4h-2v2.2h2.2c0.2,0,0.4,0.2,0.4,0.4c0,0.2-0.2,0.4-0.4,0.4h-2.6
				C196.1,61.3,195.9,61.1,195.9,60.9z"/>
			<path class="st2" d="M202.6,59.2V57c0-1.3,0.7-2.2,2.1-2.2c0.7,0,1.4,0.3,1.7,1c0,0.1,0,0.1,0,0.2c0,0.2-0.2,0.4-0.4,0.4
				c-0.1,0-0.2,0-0.3-0.2c-0.2-0.4-0.5-0.6-1.1-0.6c-1,0-1.3,0.6-1.3,1.6v2c0,1,0.4,1.6,1.3,1.6c0.5,0,0.9-0.2,1.1-0.6
				c0.1-0.1,0.2-0.2,0.3-0.2c0.2,0,0.4,0.2,0.4,0.4c0,0.1,0,0.1-0.1,0.2c-0.3,0.5-0.8,1-1.7,1C203.3,61.4,202.6,60.5,202.6,59.2z"/>
			<path class="st2" d="M211.3,61v-5.4h-1.4c-0.2,0-0.4-0.2-0.4-0.4c0-0.2,0.1-0.4,0.4-0.4h3.6c0.2,0,0.4,0.2,0.4,0.4
				c0,0.2-0.1,0.4-0.4,0.4h-1.4V61c0,0.2-0.2,0.4-0.4,0.4C211.5,61.4,211.3,61.2,211.3,61z"/>
			<path class="st2" d="M217.4,61v-5.8c0-0.2,0.2-0.4,0.4-0.4c0.2,0,0.4,0.2,0.4,0.4V61c0,0.2-0.2,0.4-0.4,0.4
				C217.5,61.4,217.4,61.2,217.4,61z"/>
			<path class="st2" d="M221.9,59.2V57c0-1.3,0.7-2.2,2.1-2.2c1.4,0,2.1,0.9,2.1,2.2v2.2c0,1.3-0.7,2.2-2.1,2.2
				C222.6,61.4,221.9,60.5,221.9,59.2z M225.4,59.1v-2c0-1-0.4-1.6-1.3-1.6c-1,0-1.3,0.6-1.3,1.6v2c0,1,0.4,1.6,1.3,1.6
				C225,60.6,225.4,60.1,225.4,59.1z"/>
			<path class="st2" d="M229.9,61v-5.9c0-0.2,0.2-0.4,0.3-0.4c0.1,0,0.2,0.1,0.3,0.2l2.9,4.7h0v-4.6c0-0.2,0.2-0.4,0.4-0.4
				c0.2,0,0.4,0.2,0.4,0.4V61c0,0.2-0.2,0.4-0.4,0.4c-0.2,0-0.3-0.1-0.3-0.2l-2.8-4.7h0V61c0,0.2-0.2,0.4-0.4,0.4
				C230.1,61.4,229.9,61.2,229.9,61z"/>
			<path class="st2" d="M124.2,71.5v-5.7c0-0.2,0.2-0.4,0.4-0.4h1.6c1.5,0,2.3,1,2.3,3.2c0,2-0.9,3.2-2.1,3.2h-1.8
				C124.4,71.9,124.2,71.7,124.2,71.5z M126,71.2c1.4,0,1.7-1.3,1.7-2.6c0-1.2-0.3-2.5-1.7-2.5h-1v5H126z"/>
			<path class="st2" d="M132.4,71.5v-5.7c0-0.2,0.2-0.4,0.4-0.4h2.5c0.2,0,0.4,0.2,0.4,0.4s-0.2,0.4-0.4,0.4h-2.2v2.1h2
				c0.2,0,0.4,0.2,0.4,0.4s-0.2,0.4-0.4,0.4h-2v2.2h2.2c0.2,0,0.4,0.2,0.4,0.4c0,0.2-0.2,0.4-0.4,0.4h-2.6
				C132.6,71.9,132.4,71.7,132.4,71.5z"/>
			<path class="st2" d="M139.5,71.5v-5.7c0-0.2,0.2-0.4,0.4-0.4h2.6c0.2,0,0.4,0.2,0.4,0.4s-0.2,0.4-0.4,0.4h-2.2v2.2h2
				c0.2,0,0.4,0.2,0.4,0.4s-0.2,0.4-0.4,0.4h-2v2.5c0,0.2-0.2,0.4-0.4,0.4C139.7,71.9,139.5,71.7,139.5,71.5z"/>
			<path class="st2" d="M146.6,71.5v-5.7c0-0.2,0.2-0.4,0.4-0.4h2.5c0.2,0,0.4,0.2,0.4,0.4s-0.2,0.4-0.4,0.4h-2.2v2.1h2
				c0.2,0,0.4,0.2,0.4,0.4s-0.2,0.4-0.4,0.4h-2v2.2h2.2c0.2,0,0.4,0.2,0.4,0.4c0,0.2-0.2,0.4-0.4,0.4h-2.6
				C146.7,71.9,146.6,71.7,146.6,71.5z"/>
			<path class="st2" d="M153.4,69.8v-2.2c0-1.3,0.7-2.2,2.1-2.2c0.7,0,1.4,0.3,1.7,1c0,0.1,0,0.1,0,0.2c0,0.2-0.2,0.4-0.4,0.4
				c-0.1,0-0.2,0-0.3-0.2c-0.2-0.4-0.5-0.6-1.1-0.6c-1,0-1.3,0.6-1.3,1.6v2c0,1,0.4,1.6,1.3,1.6c0.5,0,0.9-0.2,1.1-0.6
				c0.1-0.1,0.2-0.2,0.3-0.2c0.2,0,0.4,0.2,0.4,0.4c0,0.1,0,0.1-0.1,0.2c-0.3,0.5-0.8,1-1.7,1C154.1,72,153.4,71.1,153.4,69.8z"/>
			<path class="st2" d="M162.2,71.6v-5.4h-1.4c-0.2,0-0.4-0.2-0.4-0.4c0-0.2,0.1-0.4,0.4-0.4h3.6c0.2,0,0.4,0.2,0.4,0.4
				s-0.1,0.4-0.4,0.4H163v5.4c0,0.2-0.2,0.4-0.4,0.4C162.4,72,162.2,71.8,162.2,71.6z"/>
			<path class="st2" d="M172.8,71.6c0-0.1,0-0.1,0-0.2l1.8-5.6c0.1-0.2,0.2-0.3,0.4-0.3h0.2c0.2,0,0.3,0.1,0.4,0.3l1.8,5.7
				c0,0,0,0.1,0,0.2c0,0.2-0.2,0.4-0.4,0.4c-0.2,0-0.3-0.1-0.4-0.3l-0.4-1.4H174l-0.4,1.4c0,0.2-0.2,0.3-0.4,0.3
				C172.9,72,172.8,71.8,172.8,71.6z M176,69.6l-0.9-3h0l-0.9,3H176z"/>
			<path class="st2" d="M180.9,71.5c-0.1-0.1-0.2-0.2-0.2-0.3c0-0.2,0.2-0.4,0.4-0.4c0.1,0,0.1,0,0.2,0.1c0.4,0.2,0.8,0.3,1.3,0.3
				c0.9,0,1.2-0.5,1.2-1.1c0-2-3-0.7-3-3c0-1.1,0.6-1.7,1.8-1.7c0.6,0,1.2,0.2,1.5,0.4c0.1,0.1,0.2,0.2,0.2,0.3
				c0,0.2-0.2,0.3-0.4,0.3c-0.1,0-0.1,0-0.2-0.1c-0.4-0.2-0.8-0.3-1.1-0.3c-0.9,0-1.1,0.5-1.1,1c0,1.5,3,0.5,3,3
				c0,1.1-0.6,1.9-2,1.9C182,72,181.4,71.9,180.9,71.5z"/>
			<path class="st2" d="M188.1,71.5c-0.1-0.1-0.2-0.2-0.2-0.3c0-0.2,0.2-0.4,0.4-0.4c0.1,0,0.1,0,0.2,0.1c0.4,0.2,0.8,0.3,1.3,0.3
				c0.9,0,1.2-0.5,1.2-1.1c0-2-3-0.7-3-3c0-1.1,0.6-1.7,1.8-1.7c0.6,0,1.2,0.2,1.5,0.4c0.1,0.1,0.2,0.2,0.2,0.3
				c0,0.2-0.2,0.3-0.4,0.3c-0.1,0-0.1,0-0.2-0.1c-0.4-0.2-0.8-0.3-1.1-0.3c-0.9,0-1.1,0.5-1.1,1c0,1.5,3,0.5,3,3
				c0,1.1-0.6,1.9-2,1.9C189.2,72,188.6,71.9,188.1,71.5z"/>
			<path class="st2" d="M195.5,71.6v-5.8c0-0.2,0.2-0.4,0.4-0.4c0.2,0,0.4,0.2,0.4,0.4v5.8c0,0.2-0.2,0.4-0.4,0.4
				C195.7,72,195.5,71.8,195.5,71.6z"/>
			<path class="st2" d="M200.3,71.5c-0.1-0.1-0.2-0.2-0.2-0.3c0-0.2,0.2-0.4,0.4-0.4c0.1,0,0.1,0,0.2,0.1c0.4,0.2,0.8,0.3,1.3,0.3
				c0.9,0,1.2-0.5,1.2-1.1c0-2-3-0.7-3-3c0-1.1,0.6-1.7,1.8-1.7c0.6,0,1.2,0.2,1.5,0.4c0.1,0.1,0.2,0.2,0.2,0.3
				c0,0.2-0.2,0.3-0.4,0.3c-0.1,0-0.1,0-0.2-0.1c-0.4-0.2-0.8-0.3-1.1-0.3c-0.9,0-1.1,0.5-1.1,1c0,1.5,3,0.5,3,3
				c0,1.1-0.6,1.9-2,1.9C201.4,72,200.8,71.9,200.3,71.5z"/>
			<path class="st2" d="M208.8,71.6v-5.4h-1.4c-0.2,0-0.4-0.2-0.4-0.4c0-0.2,0.1-0.4,0.4-0.4h3.6c0.2,0,0.4,0.2,0.4,0.4
				s-0.1,0.4-0.4,0.4h-1.4v5.4c0,0.2-0.2,0.4-0.4,0.4C209,72,208.8,71.8,208.8,71.6z"/>
			<path class="st2" d="M213.9,71.6c0-0.1,0-0.1,0-0.2l1.8-5.6c0.1-0.2,0.2-0.3,0.4-0.3h0.2c0.2,0,0.3,0.1,0.4,0.3l1.8,5.7
				c0,0,0,0.1,0,0.2c0,0.2-0.2,0.4-0.4,0.4c-0.2,0-0.3-0.1-0.4-0.3l-0.4-1.4H215l-0.4,1.4c0,0.2-0.2,0.3-0.4,0.3
				C214,72,213.9,71.8,213.9,71.6z M217.1,69.6l-0.9-3h0l-0.9,3H217.1z"/>
			<path class="st2" d="M222.2,71.6v-5.9c0-0.2,0.2-0.4,0.3-0.4c0.1,0,0.2,0.1,0.3,0.2l2.9,4.7h0v-4.6c0-0.2,0.2-0.4,0.4-0.4
				c0.2,0,0.4,0.2,0.4,0.4v5.9c0,0.2-0.2,0.4-0.4,0.4c-0.2,0-0.3-0.1-0.3-0.2l-2.8-4.7h0v4.5c0,0.2-0.2,0.4-0.4,0.4
				C222.3,72,222.2,71.8,222.2,71.6z"/>
			<path class="st2" d="M231.9,71.6v-5.4h-1.4c-0.2,0-0.4-0.2-0.4-0.4c0-0.2,0.1-0.4,0.4-0.4h3.6c0.2,0,0.4,0.2,0.4,0.4
				s-0.1,0.4-0.4,0.4h-1.4v5.4c0,0.2-0.2,0.4-0.4,0.4C232.1,72,231.9,71.8,231.9,71.6z"/>
		</g>
	</g>
	<g>
		<path class="st3" d="M110.7,37.8c-2.6-4.5-5.7-8.7-9.3-12.4C90.1,13.8,75.2,7.4,59.3,7.4c0,0,0,0,0,0s0,0,0,0c-0.1,0-0.2,0-0.3,0
			c-15.8,0.1-30.6,6.4-41.8,17.9c-3.6,3.7-6.8,7.9-9.3,12.4l-0.2,0.4h6.7l0.1-0.1c1.8-2.8,3.8-5.4,6-7.7h8.7c-0.7,2.4-1,5-1,7.6
			l0,0.3h6l0-0.3c0-2.6,0.5-5.2,1.3-7.6h15.3c-1.8,2-2.9,4.6-2.9,7.5l0,0.4h22.9l0-0.3c0-2.9-1.1-5.5-2.9-7.6h15.3
			c0.8,2.4,1.3,4.9,1.3,7.6l0,0.3h6l0-0.3c0-2.6-0.4-5.2-1-7.6h8.7c2.2,2.4,4.2,4.9,6,7.7l0.1,0.1h6.7L110.7,37.8z M31.4,24.5h-4.6
			c2.5-2,5.1-3.7,7.9-5.1C33.5,20.9,32.3,22.6,31.4,24.5z M60.9,13.5c2.3,0.1,4.5,0.6,6.6,1.3v9.7h-6.6V13.5z M51,14.8
			c2.1-0.7,4.3-1.2,6.6-1.3v11H51V14.8z M47.8,24.5h-6.6v-3.4c1.9-2,4.1-3.6,6.6-4.9V24.5z M77.4,24.5h-6.6v-8.3
			c2.5,1.3,4.7,2.9,6.6,4.9V24.5z M87.1,24.5c-0.9-1.8-2-3.5-3.3-5.1c2.8,1.5,5.4,3.2,7.9,5.1H87.1z"/>
		<g>
			<path class="st4" d="M59.2,53.7L59.2,53.7c0,0,0.1,0,0.1,0c3,0,5.8-1.2,7.9-3.3c2.2-2.2,3.5-5.1,3.5-8.2V42H47.8l0,0.3
				C47.8,48.5,52.9,53.6,59.2,53.7z"/>
			<path class="st4" d="M104.2,42l-0.1,0.1c-5.2,8.1-12.2,14.5-20.3,18.7c4.1-5.1,6.6-11.6,6.6-18.6l0-0.3h-6l0,0.3
				C84.2,55.8,73,66.8,59.3,66.8c-13.7,0-25-11-25.1-24.5l0-0.3h-6l0,0.3c0.1,7,2.5,13.4,6.6,18.6c-8.1-4.3-15.1-10.7-20.3-18.7
				L14.4,42H7.6l0.2,0.4c2.6,4.5,5.7,8.7,9.3,12.4c11.2,11.5,26,17.8,41.8,17.9c0.1,0,0.2,0,0.2,0c0,0,0,0,0,0s0,0,0,0
				c15.9,0,30.8-6.4,42.1-17.9c3.6-3.7,6.8-7.9,9.3-12.4l0.2-0.4H104.2z"/>
		</g>
	</g>
</g>
</svg>
