<?xml version="1.0" encoding="utf-8"?>
<!-- Generator: Adobe Illustrator 27.0.0, SVG Export Plug-In . SVG Version: 6.00 Build 0)  -->
<svg version="1.1" id="Layer_1" xmlns="http://www.w3.org/2000/svg" xmlns:xlink="http://www.w3.org/1999/xlink" x="0px" y="0px"
	 viewBox="0 0 269.7 92.3" style="enable-background:new 0 0 269.7 92.3;" xml:space="preserve">
<style type="text/css">
	.st0{fill:#437669;stroke:#437669;stroke-width:1.1629;stroke-miterlimit:10;}
	.st1{fill:#437669;stroke:#437669;stroke-width:1.2506;stroke-miterlimit:10;}
	.st2{fill:#437669;stroke:#437669;stroke-width:0.4264;stroke-miterlimit:10;}
	.st3{fill:#D8C27C;}
	.st4{fill:#DCDCDA;}
	.st5{fill:#437669;}
</style>
<g>
	<g>
		<g>
			<path class="st0" d="M135.3,38.2V25.4c0-8,4.1-13.2,12.5-13.2c4.4,0,8.1,1.6,10.4,5.9c0.2,0.3,0.3,0.7,0.3,1c0,1.2-1,2.2-2.3,2.2
				c-0.6,0-1.2-0.2-1.7-0.9c-1.5-2.3-3.2-3.7-6.7-3.7c-5.8,0-7.9,3.4-7.9,9.3v11.8c0,5.9,2.2,9.3,7.9,9.3c4.1,0,7.7-2.1,7.7-6.2V35
				H150c-1.2,0-2.1-0.9-2.1-2.1c0-1.2,0.9-2.1,2.1-2.1h7.7c1.2,0,2.1,0.9,2.1,2.1V41c0,6.4-4.9,10.5-12,10.5
				C139.4,51.5,135.3,46.2,135.3,38.2z"/>
			<path class="st1" d="M154.1,32.8c0-1.1,1.7-2,3.8-2h14.2c2,0,3.8,0.9,3.8,2c0,1.1-1.7,2-3.8,2h-14.2
				C155.9,34.8,154.1,33.9,154.1,32.8z"/>
			<path class="st0" d="M173.1,49.1V14.5c0-1.3,1-2.4,2.3-2.4c1.2,0,2.3,1,2.3,2.4v34.7c0,1.3-1.1,2.3-2.3,2.3
				C174.1,51.5,173.1,50.4,173.1,49.1z"/>
			<path class="st0" d="M187.5,48.7V14.9c0-1.3,1-2.4,2.3-2.4h9.3c8.7,0,14,6,14,19.1c0,11.9-5.3,19.3-12.7,19.3h-10.5
				C188.5,51,187.5,50,187.5,48.7z M198.3,46.7c8.3,0,10.1-7.5,10.1-15.2c0-7-1.8-14.7-10.1-14.7h-6.2v29.9H198.3z"/>
			<path class="st0" d="M217.5,49.1c0-0.4,0.1-0.8,0.2-1.1l10.8-33.7c0.3-1.1,1-1.8,2.2-1.8h1c1.2,0,1.9,0.7,2.2,1.8l10.8,33.8
				c0.1,0.3,0.2,0.7,0.2,1c0,1.3-1,2.3-2.3,2.3c-1.1,0-1.9-0.8-2.2-1.8l-2.5-8.2h-13.3l-2.5,8.2c-0.3,1-1.2,1.8-2.3,1.8
				C218.5,51.5,217.5,50.4,217.5,49.1z M236.8,37.1l-5.4-17.7h-0.2l-5.4,17.7H236.8z"/>
		</g>
	</g>
	<g>
		<path class="st2" d="M134.8,63.2v-2.2c0-1.3,0.7-2.2,2.1-2.2c0.7,0,1.4,0.3,1.7,1c0,0.1,0,0.1,0,0.2c0,0.2-0.2,0.4-0.4,0.4
			c-0.1,0-0.2,0-0.3-0.2c-0.2-0.4-0.5-0.6-1.1-0.6c-1,0-1.3,0.6-1.3,1.6v2c0,1,0.4,1.6,1.3,1.6c0.7,0,1.3-0.4,1.3-1v-1h-0.9
			c-0.2,0-0.4-0.2-0.4-0.4c0-0.2,0.2-0.4,0.4-0.4h1.3c0.2,0,0.4,0.2,0.4,0.4v1.4c0,1.1-0.8,1.8-2,1.8
			C135.5,65.5,134.8,64.6,134.8,63.2z"/>
		<path class="st2" d="M142.8,65.1v-5.7c0-0.2,0.2-0.4,0.4-0.4h1.4c1.3,0,2.1,0.5,2.1,2c0,1.3-0.7,1.7-1.2,1.8l1.1,2.1
			c0,0.1,0.1,0.2,0.1,0.2c0,0.2-0.2,0.4-0.4,0.4c-0.2,0-0.3-0.1-0.4-0.3l-1.2-2.3h-1.2v2.2c0,0.2-0.2,0.4-0.4,0.4
			C143,65.5,142.8,65.3,142.8,65.1z M144.6,62.1c0.8,0,1.3-0.3,1.3-1.2c0-1-0.5-1.2-1.4-1.2h-0.9v2.5H144.6z"/>
		<path class="st2" d="M150.5,65.1v-5.8c0-0.2,0.2-0.4,0.4-0.4c0.2,0,0.4,0.2,0.4,0.4v5.8c0,0.2-0.2,0.4-0.4,0.4
			C150.6,65.5,150.5,65.3,150.5,65.1z"/>
		<path class="st2" d="M155,65c-0.1-0.1-0.2-0.2-0.2-0.3c0-0.2,0.2-0.4,0.4-0.4c0.1,0,0.1,0,0.2,0.1c0.4,0.2,0.8,0.3,1.3,0.3
			c0.9,0,1.2-0.5,1.2-1.1c0-2-3-0.7-3-3c0-1.1,0.6-1.7,1.8-1.7c0.6,0,1.2,0.2,1.5,0.4c0.1,0.1,0.2,0.2,0.2,0.3
			c0,0.2-0.2,0.3-0.4,0.3c-0.1,0-0.1,0-0.2-0.1c-0.4-0.2-0.8-0.3-1.1-0.3c-0.9,0-1.1,0.5-1.1,1c0,1.5,3,0.5,3,3c0,1.1-0.6,1.9-2,1.9
			C156.1,65.5,155.5,65.3,155,65z"/>
		<path class="st2" d="M162.4,65.1v-5.8c0-0.2,0.2-0.4,0.4-0.4c0.2,0,0.4,0.2,0.4,0.4v5.8c0,0.2-0.2,0.4-0.4,0.4
			C162.5,65.5,162.4,65.3,162.4,65.1z"/>
		<path class="st2" d="M166.9,65c-0.1-0.1-0.2-0.2-0.2-0.3c0-0.2,0.2-0.4,0.4-0.4c0.1,0,0.1,0,0.2,0.1c0.4,0.2,0.8,0.3,1.3,0.3
			c0.9,0,1.2-0.5,1.2-1.1c0-2-3-0.7-3-3c0-1.1,0.6-1.7,1.8-1.7c0.6,0,1.2,0.2,1.5,0.4c0.1,0.1,0.2,0.2,0.2,0.3
			c0,0.2-0.2,0.3-0.4,0.3c-0.1,0-0.1,0-0.2-0.1c-0.4-0.2-0.8-0.3-1.1-0.3c-0.9,0-1.1,0.5-1.1,1c0,1.5,3,0.5,3,3c0,1.1-0.6,1.9-2,1.9
			C168,65.5,167.4,65.3,166.9,65z"/>
		<path class="st2" d="M179,65.1v-5.8c0-0.2,0.2-0.4,0.4-0.4c0.2,0,0.4,0.2,0.4,0.4v5.8c0,0.2-0.2,0.4-0.4,0.4
			C179.1,65.5,179,65.3,179,65.1z"/>
		<path class="st2" d="M183.8,65.1v-5.9c0-0.2,0.2-0.4,0.3-0.4c0.1,0,0.2,0.1,0.3,0.2l2.9,4.7h0v-4.6c0-0.2,0.2-0.4,0.4-0.4
			c0.2,0,0.4,0.2,0.4,0.4v5.9c0,0.2-0.2,0.4-0.4,0.4c-0.2,0-0.3-0.1-0.3-0.2l-2.8-4.7h0v4.5c0,0.2-0.2,0.4-0.4,0.4
			C183.9,65.5,183.8,65.3,183.8,65.1z"/>
		<path class="st2" d="M191.9,65c-0.1-0.1-0.2-0.2-0.2-0.3c0-0.2,0.2-0.4,0.4-0.4c0.1,0,0.1,0,0.2,0.1c0.4,0.2,0.8,0.3,1.3,0.3
			c0.9,0,1.2-0.5,1.2-1.1c0-2-3-0.7-3-3c0-1.1,0.6-1.7,1.8-1.7c0.6,0,1.2,0.2,1.5,0.4c0.1,0.1,0.2,0.2,0.2,0.3
			c0,0.2-0.2,0.3-0.4,0.3c-0.1,0-0.1,0-0.2-0.1c-0.4-0.2-0.8-0.3-1.1-0.3c-0.9,0-1.1,0.5-1.1,1c0,1.5,3,0.5,3,3c0,1.1-0.6,1.9-2,1.9
			C193,65.5,192.4,65.3,191.9,65z"/>
		<path class="st2" d="M199.2,65.1v-5.7c0-0.2,0.2-0.4,0.4-0.4h1.3c1.3,0,2.2,0.4,2.2,2c0,1.4-0.8,2.1-2.1,2.1h-1v2
			c0,0.2-0.2,0.4-0.4,0.4C199.4,65.5,199.2,65.3,199.2,65.1z M201,62.3c0.9,0,1.3-0.5,1.3-1.4c0-1-0.4-1.3-1.4-1.3H200v2.7H201z"/>
		<path class="st2" d="M206.7,65v-5.7c0-0.2,0.2-0.4,0.4-0.4h2.5c0.2,0,0.4,0.2,0.4,0.4c0,0.2-0.2,0.4-0.4,0.4h-2.2v2.1h2
			c0.2,0,0.4,0.2,0.4,0.4c0,0.2-0.2,0.4-0.4,0.4h-2v2.2h2.2c0.2,0,0.4,0.2,0.4,0.4c0,0.2-0.2,0.4-0.4,0.4h-2.6
			C206.9,65.4,206.7,65.2,206.7,65z"/>
		<path class="st2" d="M213.5,63.2v-2.2c0-1.3,0.7-2.2,2.1-2.2c0.7,0,1.4,0.3,1.7,1c0,0.1,0,0.1,0,0.2c0,0.2-0.2,0.4-0.4,0.4
			c-0.1,0-0.2,0-0.3-0.2c-0.2-0.4-0.5-0.6-1.1-0.6c-1,0-1.3,0.6-1.3,1.6v2c0,1,0.4,1.6,1.3,1.6c0.5,0,0.9-0.2,1.1-0.6
			c0.1-0.1,0.2-0.2,0.3-0.2c0.2,0,0.4,0.2,0.4,0.4c0,0.1,0,0.1-0.1,0.2c-0.3,0.5-0.8,1-1.7,1C214.2,65.5,213.5,64.6,213.5,63.2z"/>
		<path class="st2" d="M222.1,65.1v-5.4h-1.4c-0.2,0-0.4-0.2-0.4-0.4c0-0.2,0.1-0.4,0.4-0.4h3.6c0.2,0,0.4,0.2,0.4,0.4
			c0,0.2-0.1,0.4-0.4,0.4h-1.4v5.4c0,0.2-0.2,0.4-0.4,0.4C222.3,65.5,222.1,65.3,222.1,65.1z"/>
		<path class="st2" d="M228.2,65.1v-5.8c0-0.2,0.2-0.4,0.4-0.4c0.2,0,0.4,0.2,0.4,0.4v5.8c0,0.2-0.2,0.4-0.4,0.4
			C228.4,65.5,228.2,65.3,228.2,65.1z"/>
		<path class="st2" d="M232.8,63.2v-2.2c0-1.3,0.7-2.2,2.1-2.2c1.4,0,2.1,0.9,2.1,2.2v2.2c0,1.3-0.7,2.2-2.1,2.2
			C233.5,65.5,232.8,64.6,232.8,63.2z M236.2,63.2v-2c0-1-0.4-1.6-1.3-1.6c-1,0-1.3,0.6-1.3,1.6v2c0,1,0.4,1.6,1.3,1.6
			C235.8,64.7,236.2,64.1,236.2,63.2z"/>
		<path class="st2" d="M240.8,65.1v-5.9c0-0.2,0.2-0.4,0.3-0.4c0.1,0,0.2,0.1,0.3,0.2l2.9,4.7h0v-4.6c0-0.2,0.2-0.4,0.4-0.4
			c0.2,0,0.4,0.2,0.4,0.4v5.9c0,0.2-0.2,0.4-0.4,0.4c-0.2,0-0.3-0.1-0.3-0.2l-2.8-4.7h0v4.5c0,0.2-0.2,0.4-0.4,0.4
			C240.9,65.5,240.8,65.3,240.8,65.1z"/>
		<path class="st2" d="M135.1,75.6V70c0-0.2,0.2-0.4,0.4-0.4h1.6c1.5,0,2.3,1,2.3,3.2c0,2-0.9,3.2-2.1,3.2h-1.8
			C135.2,76,135.1,75.8,135.1,75.6z M136.9,75.3c1.4,0,1.7-1.3,1.7-2.6c0-1.2-0.3-2.5-1.7-2.5h-1v5H136.9z"/>
		<path class="st2" d="M143.3,75.6V70c0-0.2,0.2-0.4,0.4-0.4h2.5c0.2,0,0.4,0.2,0.4,0.4c0,0.2-0.2,0.4-0.4,0.4H144v2.1h2
			c0.2,0,0.4,0.2,0.4,0.4c0,0.2-0.2,0.4-0.4,0.4h-2v2.2h2.2c0.2,0,0.4,0.2,0.4,0.4c0,0.2-0.2,0.4-0.4,0.4h-2.6
			C143.4,76,143.3,75.8,143.3,75.6z"/>
		<path class="st2" d="M150.4,75.6V70c0-0.2,0.2-0.4,0.4-0.4h2.6c0.2,0,0.4,0.2,0.4,0.4c0,0.2-0.2,0.4-0.4,0.4h-2.2v2.2h2
			c0.2,0,0.4,0.2,0.4,0.4c0,0.2-0.2,0.4-0.4,0.4h-2v2.5c0,0.2-0.2,0.4-0.4,0.4C150.5,76,150.4,75.8,150.4,75.6z"/>
		<path class="st2" d="M157.4,75.6V70c0-0.2,0.2-0.4,0.4-0.4h2.5c0.2,0,0.4,0.2,0.4,0.4c0,0.2-0.2,0.4-0.4,0.4h-2.2v2.1h2
			c0.2,0,0.4,0.2,0.4,0.4c0,0.2-0.2,0.4-0.4,0.4h-2v2.2h2.2c0.2,0,0.4,0.2,0.4,0.4c0,0.2-0.2,0.4-0.4,0.4h-2.6
			C157.6,76,157.4,75.8,157.4,75.6z"/>
		<path class="st2" d="M164.3,73.9v-2.2c0-1.3,0.7-2.2,2.1-2.2c0.7,0,1.4,0.3,1.7,1c0,0.1,0,0.1,0,0.2c0,0.2-0.2,0.4-0.4,0.4
			c-0.1,0-0.2,0-0.3-0.2c-0.2-0.4-0.5-0.6-1.1-0.6c-1,0-1.3,0.6-1.3,1.6v2c0,1,0.4,1.6,1.3,1.6c0.5,0,0.9-0.2,1.1-0.6
			c0.1-0.1,0.2-0.2,0.3-0.2c0.2,0,0.4,0.2,0.4,0.4c0,0.1,0,0.1-0.1,0.2c-0.3,0.5-0.8,1-1.7,1C164.9,76.1,164.3,75.2,164.3,73.9z"/>
		<path class="st2" d="M173,75.7v-5.4h-1.4c-0.2,0-0.4-0.2-0.4-0.4c0-0.2,0.1-0.4,0.4-0.4h3.6c0.2,0,0.4,0.2,0.4,0.4
			c0,0.2-0.1,0.4-0.4,0.4h-1.4v5.4c0,0.2-0.2,0.4-0.4,0.4C173.2,76.1,173,75.9,173,75.7z"/>
		<path class="st2" d="M183.6,75.7c0-0.1,0-0.1,0-0.2l1.8-5.6c0.1-0.2,0.2-0.3,0.4-0.3h0.2c0.2,0,0.3,0.1,0.4,0.3l1.8,5.7
			c0,0,0,0.1,0,0.2c0,0.2-0.2,0.4-0.4,0.4c-0.2,0-0.3-0.1-0.4-0.3l-0.4-1.4h-2.2l-0.4,1.4c0,0.2-0.2,0.3-0.4,0.3
			C183.8,76.1,183.6,75.9,183.6,75.7z M186.8,73.7l-0.9-3h0l-0.9,3H186.8z"/>
		<path class="st2" d="M191.7,75.6c-0.1-0.1-0.2-0.2-0.2-0.3c0-0.2,0.2-0.4,0.4-0.4c0.1,0,0.1,0,0.2,0.1c0.4,0.2,0.8,0.3,1.3,0.3
			c0.9,0,1.2-0.5,1.2-1.1c0-2-3-0.7-3-3c0-1.1,0.6-1.7,1.8-1.7c0.6,0,1.2,0.2,1.5,0.4c0.1,0.1,0.2,0.2,0.2,0.3
			c0,0.2-0.2,0.3-0.4,0.3c-0.1,0-0.1,0-0.2-0.1c-0.4-0.2-0.8-0.3-1.1-0.3c-0.9,0-1.1,0.5-1.1,1c0,1.5,3,0.5,3,3c0,1.1-0.6,1.9-2,1.9
			C192.8,76.1,192.2,76,191.7,75.6z"/>
		<path class="st2" d="M198.9,75.6c-0.1-0.1-0.2-0.2-0.2-0.3c0-0.2,0.2-0.4,0.4-0.4c0.1,0,0.1,0,0.2,0.1c0.4,0.2,0.8,0.3,1.3,0.3
			c0.9,0,1.2-0.5,1.2-1.1c0-2-3-0.7-3-3c0-1.1,0.6-1.7,1.8-1.7c0.6,0,1.2,0.2,1.5,0.4c0.1,0.1,0.2,0.2,0.2,0.3
			c0,0.2-0.2,0.3-0.4,0.3c-0.1,0-0.1,0-0.2-0.1c-0.4-0.2-0.8-0.3-1.1-0.3c-0.9,0-1.1,0.5-1.1,1c0,1.5,3,0.5,3,3c0,1.1-0.6,1.9-2,1.9
			C200,76.1,199.4,76,198.9,75.6z"/>
		<path class="st2" d="M206.4,75.7v-5.8c0-0.2,0.2-0.4,0.4-0.4c0.2,0,0.4,0.2,0.4,0.4v5.8c0,0.2-0.2,0.4-0.4,0.4
			C206.5,76.1,206.4,75.9,206.4,75.7z"/>
		<path class="st2" d="M211.1,75.6c-0.1-0.1-0.2-0.2-0.2-0.3c0-0.2,0.2-0.4,0.4-0.4c0.1,0,0.1,0,0.2,0.1c0.4,0.2,0.8,0.3,1.3,0.3
			c0.9,0,1.2-0.5,1.2-1.1c0-2-3-0.7-3-3c0-1.1,0.6-1.7,1.8-1.7c0.6,0,1.2,0.2,1.5,0.4c0.1,0.1,0.2,0.2,0.2,0.3
			c0,0.2-0.2,0.3-0.4,0.3c-0.1,0-0.1,0-0.2-0.1c-0.4-0.2-0.8-0.3-1.1-0.3c-0.9,0-1.1,0.5-1.1,1c0,1.5,3,0.5,3,3c0,1.1-0.6,1.9-2,1.9
			C212.2,76.1,211.6,76,211.1,75.6z"/>
		<path class="st2" d="M219.7,75.7v-5.4h-1.4c-0.2,0-0.4-0.2-0.4-0.4c0-0.2,0.1-0.4,0.4-0.4h3.6c0.2,0,0.4,0.2,0.4,0.4
			c0,0.2-0.1,0.4-0.4,0.4h-1.4v5.4c0,0.2-0.2,0.4-0.4,0.4C219.8,76.1,219.7,75.9,219.7,75.7z"/>
		<path class="st2" d="M224.7,75.7c0-0.1,0-0.1,0-0.2l1.8-5.6c0.1-0.2,0.2-0.3,0.4-0.3h0.2c0.2,0,0.3,0.1,0.4,0.3l1.8,5.7
			c0,0,0,0.1,0,0.2c0,0.2-0.2,0.4-0.4,0.4c-0.2,0-0.3-0.1-0.4-0.3l-0.4-1.4h-2.2l-0.4,1.4c0,0.2-0.2,0.3-0.4,0.3
			C224.8,76.1,224.7,75.9,224.7,75.7z M227.9,73.7l-0.9-3h0l-0.9,3H227.9z"/>
		<path class="st2" d="M233,75.7v-5.9c0-0.2,0.2-0.4,0.3-0.4c0.1,0,0.2,0.1,0.3,0.2l2.9,4.7h0v-4.6c0-0.2,0.2-0.4,0.4-0.4
			s0.4,0.2,0.4,0.4v5.9c0,0.2-0.2,0.4-0.4,0.4c-0.2,0-0.3-0.1-0.3-0.2l-2.8-4.7h0v4.5c0,0.2-0.2,0.4-0.4,0.4
			C233.1,76.1,233,75.9,233,75.7z"/>
		<path class="st2" d="M242.7,75.7v-5.4h-1.4c-0.2,0-0.4-0.2-0.4-0.4c0-0.2,0.1-0.4,0.4-0.4h3.6c0.2,0,0.4,0.2,0.4,0.4
			c0,0.2-0.1,0.4-0.4,0.4h-1.4v5.4c0,0.2-0.2,0.4-0.4,0.4C242.9,76.1,242.7,75.9,242.7,75.7z"/>
	</g>
	<g>
		<path class="st3" d="M70,57.7c6.2,0.1,11.3-5,11.4-11.2c0,0,0,0,0,0H58.8C58.8,52.5,63.8,57.6,70,57.7z"/>
		<path class="st4" d="M121.7,46.4h-6.1c-5.4,8.4-12.9,15.2-21.8,19.7c4.6-5.3,7.4-12.2,7.5-19.7h-5.5c-0.2,13.8-11.6,25-25.7,25
			c-14,0-25.5-11.2-25.7-25h-5.5c0.1,7.5,2.9,14.4,7.5,19.7C37.5,61.7,30,54.8,24.6,46.4h-6.1c2.6,4.5,5.7,8.7,9.4,12.5
			c10.9,11.2,25.3,17.5,40.7,18c0.5,0,1.1,0,1.6,0c0.5,0,1.1,0,1.6,0c15.4-0.4,29.8-6.7,40.7-18C116,55.1,119.2,50.9,121.7,46.4z"/>
		<g>
			<path class="st3" d="M70.2,30.8c-6.2-0.1-11.3,5-11.4,11.2c0,0,0,0,0,0h22.6C81.4,35.9,76.4,30.8,70.2,30.8z"/>
			<g>
				
					<rect x="30.2" y="28.7" transform="matrix(-1 -1.224647e-16 1.224647e-16 -1 140.9307 62.7941)" class="st5" width="80.5" height="5.4"/>
				<g>
					<g>
						<g>
							<path class="st5" d="M70.1,33.9c-0.9,0-1.6-0.7-1.6-1.6V15.8c0-0.9,0.7-1.6,1.6-1.6s1.6,0.7,1.6,1.6v16.5
								C71.8,33.2,71,33.9,70.1,33.9z"/>
						</g>
						<g>
							<path class="st5" d="M60.1,33.9c-0.9,0-1.6-0.7-1.6-1.6V17.5c0-0.9,0.7-1.6,1.6-1.6s1.6,0.7,1.6,1.6v14.8
								C61.8,33.2,61,33.9,60.1,33.9L60.1,33.9z"/>
						</g>
						<g>
							<path class="st5" d="M80.1,33.9c-0.9,0-1.6-0.7-1.6-1.6V17.5c0-0.9,0.7-1.6,1.6-1.6s1.6,0.7,1.6,1.6v14.8
								C81.7,33.2,81,33.9,80.1,33.9L80.1,33.9z"/>
						</g>
						<g>
							<path class="st5" d="M90.1,33.9c-0.9,0-1.6-0.7-1.6-1.6V20.8c0-0.9,0.7-1.6,1.6-1.6s1.6,0.7,1.6,1.6v11.5
								C91.7,33.2,91,33.9,90.1,33.9z"/>
						</g>
						<g>
							<path class="st5" d="M50.2,33.9c-0.9,0-1.6-0.7-1.6-1.6V20.8c0-0.9,0.7-1.6,1.6-1.6s1.6,0.7,1.6,1.6v11.5
								C51.8,33.2,51.1,33.9,50.2,33.9L50.2,33.9z"/>
						</g>
					</g>
				</g>
				<g>
					<g>
						<path class="st5" d="M70.1,16.7c19,0,35.7,10.1,45.5,25.3h6.1c-2.6-4.5-5.7-8.7-9.4-12.5c-11.3-11.6-26.3-18-42.3-18
							s-31,6.4-42.3,18c-3.7,3.8-6.8,8-9.4,12.5h6.1C34.4,26.8,51.1,16.7,70.1,16.7z"/>
						<path class="st5" d="M70.1,17c14,0,25.5,11.2,25.7,25h5.5c-0.2-16.8-14.1-30.5-31.2-30.5c-17.1,0-31,13.6-31.2,30.5h5.5
							C44.6,28.2,56.1,17,70.1,17z"/>
					</g>
				</g>
			</g>
		</g>
	</g>
</g>
</svg>
